<svg width="24" height="22" viewBox="0 0 24 22" fill="none" xmlns="http://www.w3.org/2000/svg">
<mask id="path-1-inside-1_71_565" fill="white">
<path d="M8.10016 6.64165L11.0431 0.583301C11.4209 -0.194434 12.5124 -0.194434 12.8901 0.583301L15.8331 6.64165L22.4145 7.61915C23.259 7.74456 23.5955 8.79931 22.9842 9.40431L18.2227 14.1168L19.3464 20.7743C19.4907 21.6293 18.6076 22.2812 17.852 21.8774L11.9666 18.7324L6.08128 21.8774C5.32572 22.2812 4.44255 21.6293 4.58684 20.7743L5.71055 14.1168L0.949143 9.40431C0.337803 8.79931 0.674359 7.74456 1.51878 7.61915L8.10016 6.64165Z"/>
</mask>
<path d="M8.10016 6.64165L8.5409 9.6091C9.52084 9.46356 10.3657 8.84361 10.7986 7.95249L8.10016 6.64165ZM11.0431 0.583301L13.7416 1.89414L13.7417 1.89396L11.0431 0.583301ZM12.8901 0.583301L10.1916 1.89396L10.1917 1.89413L12.8901 0.583301ZM15.8331 6.64165L13.1346 7.95248C13.5675 8.8436 14.4124 9.46356 15.3924 9.6091L15.8331 6.64165ZM22.4145 7.61915L21.9738 10.5866L21.9738 10.5866L22.4145 7.61915ZM22.9842 9.40431L25.0945 11.5366L25.0946 11.5365L22.9842 9.40431ZM18.2227 14.1168L16.1124 11.9846C15.4183 12.6715 15.102 13.6532 15.2645 14.6161L18.2227 14.1168ZM19.3464 20.7743L16.3882 21.2736L16.3883 21.2737L19.3464 20.7743ZM17.852 21.8774L16.4381 24.5233L16.4381 24.5233L17.852 21.8774ZM11.9666 18.7324L13.3806 16.0865C12.4971 15.6144 11.4362 15.6144 10.5527 16.0865L11.9666 18.7324ZM6.08128 21.8774L4.66738 19.2315L4.66736 19.2315L6.08128 21.8774ZM4.58684 20.7743L1.62869 20.275L1.62868 20.275L4.58684 20.7743ZM5.71055 14.1168L8.6687 14.6161C8.83123 13.6533 8.51494 12.6715 7.82089 11.9846L5.71055 14.1168ZM0.949143 9.40431L3.05949 7.27208L3.05938 7.27196L0.949143 9.40431ZM1.51878 7.61915L1.9595 10.5866L1.95952 10.5866L1.51878 7.61915ZM10.7986 7.95249L13.7416 1.89414L8.34468 -0.727538L5.4017 5.33081L10.7986 7.95249ZM13.7417 1.89396C13.0254 3.36868 10.9079 3.36868 10.1916 1.89396L15.5887 -0.727362C14.117 -3.75755 9.81633 -3.75755 8.3446 -0.727362L13.7417 1.89396ZM10.1917 1.89413L13.1346 7.95248L18.5316 5.33083L15.5886 -0.727526L10.1917 1.89413ZM15.3924 9.6091L21.9738 10.5866L22.8553 4.6517L16.2738 3.67421L15.3924 9.6091ZM21.9738 10.5866C20.3069 10.339 19.7764 8.35828 20.8738 7.27212L25.0946 11.5365C27.4145 9.24034 26.211 5.15009 22.8553 4.6517L21.9738 10.5866ZM20.8739 7.27205L16.1124 11.9846L20.333 16.2491L25.0945 11.5366L20.8739 7.27205ZM15.2645 14.6161L16.3882 21.2736L22.3046 20.275L21.1808 13.6175L15.2645 14.6161ZM16.3883 21.2737C16.1363 19.781 17.7257 18.4085 19.2659 19.2315L16.4381 24.5233C19.4894 26.1538 22.8452 23.4775 22.3045 20.2749L16.3883 21.2737ZM19.2659 19.2315L13.3806 16.0865L10.5527 21.3784L16.4381 24.5233L19.2659 19.2315ZM10.5527 16.0865L4.66738 19.2315L7.49518 24.5233L13.3805 21.3784L10.5527 16.0865ZM4.66736 19.2315C6.20766 18.4084 7.79688 19.7811 7.54501 21.2735L1.62868 20.275C1.08821 23.4774 4.44379 26.1539 7.49521 24.5233L4.66736 19.2315ZM7.545 21.2736L8.6687 14.6161L2.75239 13.6175L1.62869 20.275L7.545 21.2736ZM7.82089 11.9846L3.05949 7.27208L-1.1612 11.5365L3.6002 16.2491L7.82089 11.9846ZM3.05938 7.27196C4.15714 8.35835 3.6261 10.3391 1.9595 10.5866L1.07806 4.6517C-2.27738 5.15004 -3.48154 9.24028 -1.16109 11.5367L3.05938 7.27196ZM1.95952 10.5866L8.5409 9.6091L7.65942 3.67421L1.07804 4.6517L1.95952 10.5866Z" fill="#F1F6F9" mask="url(#path-1-inside-1_71_565)"/>
</svg>
