<svg width="23" height="22" viewBox="0 0 23 22" fill="none" xmlns="http://www.w3.org/2000/svg">
<mask id="path-1-inside-1_71_572" fill="white">
<path d="M7.61335 6.64165L10.5563 0.583301C10.9341 -0.194434 12.0256 -0.194434 12.4033 0.583301L15.3463 6.64165L21.9277 7.61915C22.7721 7.74456 23.1086 8.79931 22.4974 9.40431L17.7359 14.1168L18.8596 20.7743C19.0039 21.6293 18.1208 22.2812 17.3652 21.8774L11.4798 18.7324L5.59447 21.8774C4.83891 22.2812 3.95573 21.6293 4.10003 20.7743L5.22373 14.1168L0.462327 9.40431C-0.149013 8.79931 0.187542 7.74456 1.03196 7.61915L7.61335 6.64165Z"/>
</mask>
<path d="M7.61335 6.64165L10.5563 0.583301C10.9341 -0.194434 12.0256 -0.194434 12.4033 0.583301L15.3463 6.64165L21.9277 7.61915C22.7721 7.74456 23.1086 8.79931 22.4974 9.40431L17.7359 14.1168L18.8596 20.7743C19.0039 21.6293 18.1208 22.2812 17.3652 21.8774L11.4798 18.7324L5.59447 21.8774C4.83891 22.2812 3.95573 21.6293 4.10003 20.7743L5.22373 14.1168L0.462327 9.40431C-0.149013 8.79931 0.187542 7.74456 1.03196 7.61915L7.61335 6.64165Z" fill="#FAFF00"/>
<path d="M7.61335 6.64165L8.05408 9.6091C9.03403 9.46356 9.87893 8.84361 10.3118 7.95249L7.61335 6.64165ZM10.5563 0.583301L13.2548 1.89414L13.2549 1.89396L10.5563 0.583301ZM12.4033 0.583301L9.70478 1.89396L9.70486 1.89413L12.4033 0.583301ZM15.3463 6.64165L12.6478 7.95248C13.0807 8.8436 13.9256 9.46356 14.9055 9.6091L15.3463 6.64165ZM21.9277 7.61915L21.487 10.5866L21.487 10.5866L21.9277 7.61915ZM22.4974 9.40431L24.6077 11.5366L24.6078 11.5365L22.4974 9.40431ZM17.7359 14.1168L15.6256 11.9846C14.9315 12.6715 14.6152 13.6532 14.7777 14.6161L17.7359 14.1168ZM18.8596 20.7743L15.9014 21.2736L15.9014 21.2737L18.8596 20.7743ZM17.3652 21.8774L15.9513 24.5233L15.9513 24.5233L17.3652 21.8774ZM11.4798 18.7324L12.8937 16.0865C12.0103 15.6144 10.9494 15.6144 10.0659 16.0865L11.4798 18.7324ZM5.59447 21.8774L4.18057 19.2315L4.18054 19.2315L5.59447 21.8774ZM4.10003 20.7743L1.14187 20.275L1.14186 20.275L4.10003 20.7743ZM5.22373 14.1168L8.18189 14.6161C8.34441 13.6533 8.02812 12.6715 7.33408 11.9846L5.22373 14.1168ZM0.462327 9.40431L2.57267 7.27208L2.57256 7.27196L0.462327 9.40431ZM1.03196 7.61915L1.47268 10.5866L1.4727 10.5866L1.03196 7.61915ZM10.3118 7.95249L13.2548 1.89414L7.85787 -0.727538L4.91488 5.33081L10.3118 7.95249ZM13.2549 1.89396C12.5386 3.36868 10.421 3.36868 9.70478 1.89396L15.1019 -0.727362C13.6301 -3.75755 9.32952 -3.75755 7.85778 -0.727362L13.2549 1.89396ZM9.70486 1.89413L12.6478 7.95248L18.0448 5.33083L15.1018 -0.727526L9.70486 1.89413ZM14.9055 9.6091L21.487 10.5866L22.3685 4.6517L15.787 3.67421L14.9055 9.6091ZM21.487 10.5866C19.8201 10.339 19.2896 8.35828 20.387 7.27212L24.6078 11.5365C26.9277 9.24034 25.7242 5.15009 22.3684 4.6517L21.487 10.5866ZM20.3871 7.27205L15.6256 11.9846L19.8462 16.2491L24.6077 11.5366L20.3871 7.27205ZM14.7777 14.6161L15.9014 21.2736L21.8177 20.275L20.694 13.6175L14.7777 14.6161ZM15.9014 21.2737C15.6494 19.781 17.2389 18.4085 18.779 19.2315L15.9513 24.5233C19.0026 26.1538 22.3584 23.4775 21.8177 20.2749L15.9014 21.2737ZM18.7791 19.2315L12.8937 16.0865L10.0659 21.3784L15.9513 24.5233L18.7791 19.2315ZM10.0659 16.0865L4.18057 19.2315L7.00837 24.5233L12.8937 21.3784L10.0659 16.0865ZM4.18054 19.2315C5.72084 18.4084 7.31006 19.7811 7.05819 21.2735L1.14186 20.275C0.601393 23.4774 3.95697 26.1539 7.00839 24.5233L4.18054 19.2315ZM7.05818 21.2736L8.18189 14.6161L2.26557 13.6175L1.14187 20.275L7.05818 21.2736ZM7.33408 11.9846L2.57267 7.27208L-1.64802 11.5365L3.11338 16.2491L7.33408 11.9846ZM2.57256 7.27196C3.67033 8.35835 3.13928 10.3391 1.47268 10.5866L0.591241 4.6517C-2.7642 5.15004 -3.96835 9.24028 -1.64791 11.5367L2.57256 7.27196ZM1.4727 10.5866L8.05408 9.6091L7.17261 3.67421L0.591224 4.6517L1.4727 10.5866Z" fill="#F1F6F9" mask="url(#path-1-inside-1_71_572)"/>
</svg>
