<svg width="23" height="22" viewBox="0 0 23 22" fill="none" xmlns="http://www.w3.org/2000/svg">
<mask id="path-1-inside-1_71_567" fill="white">
<path d="M7.46344 6.64165L10.4064 0.583301C10.7842 -0.194434 11.8757 -0.194434 12.2534 0.583301L15.1964 6.64165L21.7778 7.61915C22.6222 7.74456 22.9587 8.79931 22.3475 9.40431L17.586 14.1168L18.7097 20.7743C18.854 21.6293 17.9709 22.2812 17.2153 21.8774L11.3299 18.7324L5.44456 21.8774C4.68901 22.2812 3.80583 21.6293 3.95012 20.7743L5.07383 14.1168L0.312425 9.40431C-0.298916 8.79931 0.0376401 7.74456 0.88206 7.61915L7.46344 6.64165Z"/>
</mask>
<path d="M7.46344 6.64165L10.4064 0.583301C10.7842 -0.194434 11.8757 -0.194434 12.2534 0.583301L15.1964 6.64165L21.7778 7.61915C22.6222 7.74456 22.9587 8.79931 22.3475 9.40431L17.586 14.1168L18.7097 20.7743C18.854 21.6293 17.9709 22.2812 17.2153 21.8774L11.3299 18.7324L5.44456 21.8774C4.68901 22.2812 3.80583 21.6293 3.95012 20.7743L5.07383 14.1168L0.312425 9.40431C-0.298916 8.79931 0.0376401 7.74456 0.88206 7.61915L7.46344 6.64165Z" fill="#FAFF00"/>
<path d="M7.46344 6.64165L7.90418 9.6091C8.88412 9.46356 9.72903 8.84361 10.1619 7.95249L7.46344 6.64165ZM10.4064 0.583301L13.1049 1.89414L13.105 1.89396L10.4064 0.583301ZM12.2534 0.583301L9.55488 1.89396L9.55496 1.89413L12.2534 0.583301ZM15.1964 6.64165L12.4979 7.95248C12.9308 8.8436 13.7757 9.46356 14.7556 9.6091L15.1964 6.64165ZM21.7778 7.61915L21.3371 10.5866L21.3371 10.5866L21.7778 7.61915ZM22.3475 9.40431L24.4578 11.5366L24.4579 11.5365L22.3475 9.40431ZM17.586 14.1168L15.4757 11.9846C14.7816 12.6715 14.4653 13.6532 14.6278 14.6161L17.586 14.1168ZM18.7097 20.7743L15.7515 21.2736L15.7515 21.2737L18.7097 20.7743ZM17.2153 21.8774L15.8014 24.5233L15.8014 24.5233L17.2153 21.8774ZM11.3299 18.7324L12.7438 16.0865C11.8603 15.6144 10.7995 15.6144 9.91603 16.0865L11.3299 18.7324ZM5.44456 21.8774L4.03066 19.2315L4.03064 19.2315L5.44456 21.8774ZM3.95012 20.7743L0.991967 20.275L0.991958 20.275L3.95012 20.7743ZM5.07383 14.1168L8.03198 14.6161C8.19451 13.6533 7.87822 12.6715 7.18417 11.9846L5.07383 14.1168ZM0.312425 9.40431L2.42277 7.27208L2.42266 7.27196L0.312425 9.40431ZM0.88206 7.61915L1.32278 10.5866L1.3228 10.5866L0.88206 7.61915ZM10.1619 7.95249L13.1049 1.89414L7.70796 -0.727538L4.76498 5.33081L10.1619 7.95249ZM13.105 1.89396C12.3887 3.36868 10.2711 3.36868 9.55488 1.89396L14.952 -0.727362C13.4802 -3.75755 9.17961 -3.75755 7.70788 -0.727362L13.105 1.89396ZM9.55496 1.89413L12.4979 7.95248L17.8948 5.33083L14.9519 -0.727526L9.55496 1.89413ZM14.7556 9.6091L21.3371 10.5866L22.2186 4.6517L15.6371 3.67421L14.7556 9.6091ZM21.3371 10.5866C19.6702 10.339 19.1397 8.35828 20.2371 7.27212L24.4579 11.5365C26.7778 9.24034 25.5743 5.15009 22.2185 4.6517L21.3371 10.5866ZM20.2372 7.27205L15.4757 11.9846L19.6963 16.2491L24.4578 11.5366L20.2372 7.27205ZM14.6278 14.6161L15.7515 21.2736L21.6678 20.275L20.5441 13.6175L14.6278 14.6161ZM15.7515 21.2737C15.4995 19.781 17.089 18.4085 18.6291 19.2315L15.8014 24.5233C18.8527 26.1538 22.2085 23.4775 21.6678 20.2749L15.7515 21.2737ZM18.6292 19.2315L12.7438 16.0865L9.91602 21.3784L15.8014 24.5233L18.6292 19.2315ZM9.91603 16.0865L4.03066 19.2315L6.85846 24.5233L12.7438 21.3784L9.91603 16.0865ZM4.03064 19.2315C5.57094 18.4084 7.16016 19.7811 6.90829 21.2735L0.991958 20.275C0.45149 23.4774 3.80707 26.1539 6.85849 24.5233L4.03064 19.2315ZM6.90828 21.2736L8.03198 14.6161L2.11567 13.6175L0.991967 20.275L6.90828 21.2736ZM7.18417 11.9846L2.42277 7.27208L-1.79792 11.5365L2.96348 16.2491L7.18417 11.9846ZM2.42266 7.27196C3.52043 8.35835 2.98938 10.3391 1.32278 10.5866L0.441339 4.6517C-2.9141 5.15004 -4.11826 9.24028 -1.79781 11.5367L2.42266 7.27196ZM1.3228 10.5866L7.90418 9.6091L7.02271 3.67421L0.441321 4.6517L1.3228 10.5866Z" fill="#F1F6F9" mask="url(#path-1-inside-1_71_567)"/>
</svg>
